# xmcd
# 
# Track frame offsets:
#     150
#     12525
#     24670
#     36757
#     48390
#     59022
#     77145
#     87232
#     99692
#     114595
#     128062
#     138630
#     149482
#     163617
# 
# Disc length: 2343
# 
# Revision: 2
# Processed by: cddbd v1.5.2PL0 Copyright (c) Steve Scherf et al.
# Submitted via: fre:ac v1.0.31
# 
DISCID=c809250e
DTITLE=Roots of Rhythm - Under the Boardwalk
DYEAR=1999
DGENRE=R&B
TTITLE0=Martha Reeves and the Vandellas - Heat Wave
TTITLE1=Billy Stewart - Summertime
TTITLE2=The Drifters - Under the Boardwalk
TTITLE3=Robert Parker - Barefootin'
TTITLE4=Major Lance - Um, Um, Um, Um, Um, Um
TTITLE5=War - Summer
TTITLE6=The Danleers - One Summer Night
TTITLE7=Johnny Nash - I Can See Clearly Now
TTITLE8=The Dynamics - Ice Cream Song
TTITLE9=The Friends of Distinction - Grazing in the Grass
TTITLE10=The Bar-Kays - Soul Finge
TTITLE11=Lee Dorsey - Ya Ya
TTITLE12=James Brown - Hot Pants
TTITLE13=Chuck Berry - No Particular Place to Go
EXTD=
EXTT0=
EXTT1=
EXTT2=
EXTT3=
EXTT4=
EXTT5=
EXTT6=
EXTT7=
EXTT8=
EXTT9=
EXTT10=
EXTT11=
EXTT12=
EXTT13=
PLAYORDER=
